C:\Users\nml-p\Documents\Projects\PredSim\OCP\IK_Guess_Full_cycling.mot
version=3
nRows=12
nColumns=29
inDegrees=no
endheader
time	pelvis_tilt	pelvis_list	pelvis_rotation	pelvis_tx	pelvis_ty	pelvis_tz	hip_flexion_r	hip_adduction_r	hip_rotation_r	knee_angle_r	knee_angle_r_beta	ankle_angle_r	subtalar_angle_r	mtp_angle_r	hip_flexion_l	hip_adduction_l	hip_rotation_l	knee_angle_l	knee_angle_l_beta	ankle_angle_l	subtalar_angle_l	mtp_angle_l	crank_rotation	crank_tx	crank_ty	crank_tz	pedal_rotation_r	pedal_rotation_l
0.3762169548300336	-0.164109168708368	0.03529047651049189	-0.001922978499024504	-0.1067643401377509	0.800842935386374	0.01771043375889598	1.242258983203602	-0.1283603908101599	0.02051572851735436	-1.36608599719217	1.36608580170596	0.01308610543633318	-0.03762195328081859	-5.439349083215093e-07	0.9124575495434745	-0.1138331802057628	0.03822050241943742	-1.486179092613217	1.486178292780863	-0.3748788212893291	-0.04211269614382863	5.414333675642731e-07	-61.0876951759236	-0.002000879601291832	0.2359985799622608	-0.0009996736528713349	0	0
0.3837412939266344	-0.1638941574864781	0.03966686162722092	0.00205453710758828	-0.1065142118798185	0.8007550875978384	0.01798499004407593	1.216025736711542	-0.1343835497137187	0.01693319578933136	-1.325457144837504	1.325456949698053	0.007578877471390107	-0.03717299566174347	-6.965521756249642e-07	0.9317353980739872	-0.1107593899617897	0.04063341503076483	-1.52254500804306	1.522544057512471	-0.3733050083921033	-0.04032267433605849	7.011173430904429e-07	-61.15052702899538	-0.002000886885329625	0.23599868356264	-0.0009996815595905558	0	0
0.391265633023235	-0.1645259402345304	0.04432022354666252	0.006017669069741539	-0.1062506124064556	0.8005645716917773	0.01830064061956486	1.189777341261816	-0.1405912079016923	0.0130979256511676	-1.284230519246369	1.284230367879682	0.001217729250305205	-0.03668390894465334	-8.106553661661424e-07	0.9527903801693686	-0.10783630550943	0.0426994063131493	-1.558872524525432	1.558871507857114	-0.371657466238173	-0.03842714756533135	8.078676171552746e-07	-61.21335888206717	-0.002000876719872253	0.2359988338548775	-0.000999715541410882	0	0
0.3987899721198357	-0.1658298862306981	0.04912783754101286	0.009930679775636893	-0.1059675175620439	0.8003070557308373	0.01863902282741506	1.163334768113677	-0.146833763478507	0.009006480822708088	-1.242487000659941	1.242486929462995	-0.005849719209996477	-0.03613466699885167	-8.865196008182571e-07	0.9753231305473675	-0.1051440728371987	0.0444654732277996	-1.594984260166439	1.594983273125212	-0.3696842807458556	-0.03648076923889339	8.215534973943835e-07	-61.27619073513896	-0.002000832202268389	0.235999053101012	-0.0009997635853572625	0	0
0.4063143112164364	-0.1676586149254994	0.05399639814174718	0.0137518138089287	-0.1056601756153663	0.8000127019449557	0.01898444917166822	1.136527344425191	-0.1529764883952337	0.004671063728256446	-1.200271625398634	1.200271655327426	-0.01358064861198446	-0.03551782398543673	-9.105303908723187e-07	0.9991076290767668	-0.1027660401586134	0.04595130065617842	-1.630727630815825	1.63072675223204	-0.3670990206697656	-0.03452943044369464	7.619936095461293e-07	-61.33902258821075	-0.002000747550869023	0.2359993024760863	-0.0009998202023230379	0	0
0.413838650313037	-0.1698064269789269	0.05874437674086534	0.01742140184395452	-0.1053277329092522	0.7997166897251474	0.0193158289430199	1.109268887063915	-0.1588307738530625	5.348295637154373e-05	-1.157839009693062	1.157839142463241	-0.02202697761899588	-0.03484550118904101	-8.651220854583211e-07	1.023777157369067	-0.1008337604139892	0.04722408297507558	-1.665808269543113	1.665807556080803	-0.3635337636634071	-0.03261080474181759	6.50621477898846e-07	-61.40185444128258	-0.002000616920259312	0.235999557681473	-0.0009998907024711321	0	0
0.4213629894096377	-0.1720366954299252	0.06319963137189349	0.02088091750355883	-0.1049753101217622	0.7994575950113687	0.01961418767113403	1.081566886489665	-0.164231166160786	-0.004853433831362275	-1.115528995028068	1.115529192202959	-0.03128031816179936	-0.03415675049407385	-7.493120236062818e-07	1.048847193538533	-0.09943795342545278	0.0483728819064643	-1.699918412306459	1.699917889725209	-0.3586341511577311	-0.03074761905812657	4.930649683843061e-07	-61.46468629435437	-0.002000443747142212	0.2359997915194112	-0.0009999805950657984	0	0
0.4288873285062384	-0.1741868342072696	0.06720665822318928	0.02407562942825575	-0.1046158511281765	0.7992540055786215	0.01986463032901085	1.053595425651561	-0.1690580044336511	-0.01007589691336429	-1.073740872118805	1.073741073589851	-0.0414424710430805	-0.03351102204795936	-6.135558443178136e-07	1.073906873248436	-0.09864678583449153	0.04949592245481325	-1.732805730285452	1.732805386812693	-0.3521085794401029	-0.0289372933132671	3.237962936769009e-07	-61.52751814742615	-0.002000245047137268	0.2360000011831875	-0.001000068429539388	0	0
0.436411667602839	-0.1762066369144106	0.07067286890763726	0.02695418309219686	-0.1042667480694948	0.7991040420740607	0.02005565620384591	1.025643807637996	-0.1732352842797986	-0.0156087573770053	-1.03286666058882	1.032866801526303	-0.05267269695653792	-0.03296334817810097	-4.619595409020574e-07	1.098747967987715	-0.09847778775984417	0.05066749696976829	-1.764285836387587	1.764285632756738	-0.3437284680920561	-0.02715650676813606	1.814761441156025e-07	-61.59035000049793	-0.002000035947000601	0.2360001698175917	-0.001000162002595172	0	0
0.4439360066994397	-0.1780995224401417	0.07360497502356828	0.02949105655705628	-0.1039447591987906	0.798992757746522	0.02018270991124007	0.9980084774922949	-0.1767800080428713	-0.0213944351880231	-0.9932200285976845	0.99322005567181	-0.06509850940748135	-0.03255165224079296	-3.077470055423985e-07	1.123310871736151	-0.09888182657722328	0.05191301445288166	-1.794315763500213	1.794315654675706	-0.3334451554227219	-0.02536154753612724	7.737399340885148e-08	-61.65318185356973	-0.001999830585483049	0.2360003055991663	-0.001000262499054545	0	0
0.4514603457960403	-0.1798733858409408	0.07603148299561933	0.03164318513988665	-0.1036667909231721	0.7989065855769103	0.02024223221854035	0.9709672732286443	-0.1797104781717545	-0.02734975020681949	-0.955113502268751	0.9551133755460135	-0.07883478970937839	-0.03231643374730692	-1.827163737400349e-07	1.14756470748134	-0.09981025911039458	0.05323737220712328	-1.822835230849778	1.822835170532241	-0.3212149563539368	-0.02351651732557459	1.855220128075916e-08	-61.71601370664155	-0.001999651994945293	0.2360004213393435	-0.001000365475157395	0	0
0.458984684892641	-0.1816374459171729	0.07801706741688068	0.03338214885592152	-0.1034497103321976	0.798809758880874	0.0202360007863314	0.9448958231472367	-0.1820889331349511	-0.03338071096707978	-0.9188501198459328	0.9188498322885252	-0.09386556433296793	-0.03227422822675788	-7.566471746424836e-08	1.171642950164465	-0.1012032229851391	0.05462401129883459	-1.849862785793408	1.849862731374292	-0.3072029338854023	-0.02156970142165311	1.867382082682379e-08	-61.77884555971335	-0.00199951212582577	0.2360005148063281	-0.001000482698662162	0	0
